<svg xmlns="http://www.w3.org/2000/svg" viewBox="0 0 566.86 187.27">
  <title>The Metropolitan Museum of Art Logo</title>
  <path 
    fill="currentColor" 
    d="M566.86,94.36c0-51.25-29.74-92.64-71.13-92.64-41.58,0-71.22,41.39-71.22,92.64S454.15,187,495.73,187c41.39,0,71.13-41.4,71.13-92.64m-28.47,26.93c0,32.81-9.31,61.19-33.17,61.19-30.64,0-52-64.44-52-114.51,0-33.08,9.31-61.82,33-61.82,30.37,0,52.15,65,52.15,115.14m-130.6,9.13c0-28.47-21.78-57.48-64.26-57.48-17.26,0-35.52,6.14-44.92,19.43l8.23-61.73c13.82,5.24,26.39,7.86,39,7.86,23.86,0,47.27-10.93,58.75-35.34l-1.36-.81c-7.59,7-21.15,9.22-36,9.22-22.5,0-47.27-5.42-58.84-10.49L307.29,1,294.18,101l2.35.1c6.42-13.38,20.16-20.79,34.71-20.79,30.64,0,43.74,28.38,43.74,55.58,0,23.95-10.39,48.35-30.91,48.35-19.61,0-45.19-24.4-56.94-56.3h-1.62l6.68,51.51c13,4.61,32,7.78,47.63,7.78,46.37,0,68-28.38,68-56.85M279.63,183.11c-18.25-.63-30.36-12.47-30.36-29V0h-.91C236.7,19,215.46,35.07,190,35.79v2.44h6.68c11.75,0,24.32,3.16,24.32,17V154.1c0,16.54-12.11,28.38-30.37,29v1.63h89v-1.63ZM175.88,60.64a44.57,44.57,0,0,1-4.34,8.86,36,36,0,0,1-6.24,7.59,28.2,28.2,0,0,1-8,5.25,23.38,23.38,0,0,1-9.76,2H133.85V46.09c6.51,0,11.48,1.54,15,4.7s5.78,7.78,7.13,14h1.36L152.47,25h-1.26a37.22,37.22,0,0,1-.91,8.31,14.52,14.52,0,0,1-3,5.88A13.08,13.08,0,0,1,142,42.66a26.17,26.17,0,0,1-8.14,1.08V6.42h10.3a23.32,23.32,0,0,1,9.77,2.08,28,28,0,0,1,8,5.24,36.39,36.39,0,0,1,6.33,7.59,44.69,44.69,0,0,1,4.25,8.86h1.17L170.28,4H108.55V5.6c3.61,0,6.41,1,8.31,3s2.8,4.79,2.8,8.49V43.74H88.12V17.08c0-3.7.9-6.51,2.8-8.49s4.7-3,8.41-3V4H8L4.52,30.19H5.69a39.51,39.51,0,0,1,4.25-8.14,49.93,49.93,0,0,1,6.69-7.86A38.43,38.43,0,0,1,24.85,8,18.65,18.65,0,0,1,33.8,5.6V72.85a12.15,12.15,0,0,1-1.08,5.24A10.37,10.37,0,0,1,29.92,82a12.8,12.8,0,0,1-4.34,2.36,16.44,16.44,0,0,1-5.24.81v1.72H47.9V5.6A43.28,43.28,0,0,1,58.48,6.78a21.62,21.62,0,0,1,8.22,3.79A18.23,18.23,0,0,1,72,17.62a26.92,26.92,0,0,1,1.9,10.76V72.85a14,14,0,0,1-1,5.24A11.27,11.27,0,0,1,70,82a12.93,12.93,0,0,1-4.24,2.36,16.46,16.46,0,0,1-5.25.81v1.72H99.33V85.14c-7.5,0-11.21-3.8-11.21-11.39V46.27h31.54V73.75c0,3.89-.9,6.78-2.71,8.59s-4.61,2.8-8.4,2.8v1.72h65l3.52-26.22Zm2.62,41.22H82.88a16,16,0,0,0-4.16.54,18.13,18.13,0,0,0-3.89,1.54,11.85,11.85,0,0,0-3.16,2.44,12.82,12.82,0,0,0-2.17,3.25l-20,46.91L28.38,110.08a12.83,12.83,0,0,0-5.51-6,18.75,18.75,0,0,0-9.4-2.17H0v1.62a14.69,14.69,0,0,1,8.22,2.35,14.48,14.48,0,0,1,5.25,6.33v58.57A12.26,12.26,0,0,1,12.38,176a11.16,11.16,0,0,1-2.89,3.89,11.66,11.66,0,0,1-4.25,2.35,14.22,14.22,0,0,1-5.24.9v1.63H29.83v-1.63a14.31,14.31,0,0,1-5.25-.9,11.61,11.61,0,0,1-4.24-2.35,11.31,11.31,0,0,1-2.9-3.89,12.38,12.38,0,0,1-1-5.24V118.4l26.39,58h1L70,115.23l.09,55.5A12.4,12.4,0,0,1,69,176a11.05,11.05,0,0,1-2.8,3.89,12.86,12.86,0,0,1-4.34,2.35,14.25,14.25,0,0,1-5.24.9v1.63H124l3.43-26.21h-1.17a43.79,43.79,0,0,1-4.25,8.85,36.15,36.15,0,0,1-6.32,7.6,28.43,28.43,0,0,1-8,5.24,23.34,23.34,0,0,1-9.76,2H84.23V144c6.6,0,11.57,1.53,15,4.69s5.87,7.78,7.14,14h1.35l-4.79-39.76h-1.35a32.16,32.16,0,0,1-.91,8.31,14.4,14.4,0,0,1-3,5.88,11.61,11.61,0,0,1-5.33,3.43,26.15,26.15,0,0,1-8.14,1.09V104.39h8a25.8,25.8,0,0,1,10,1.72,18.57,18.57,0,0,1,7,4.88,23,23,0,0,1,4.43,7.5,42.52,42.52,0,0,1,2.35,9.58h1.08a52,52,0,0,1,2.08-9.49,25.72,25.72,0,0,1,4.16-7.59,18.78,18.78,0,0,1,6.6-5.25,21.59,21.59,0,0,1,9.4-1.89v80.89h27.56v-1.63a14.59,14.59,0,0,1-5.24-.9,11.66,11.66,0,0,1-4.25-2.35,12.55,12.55,0,0,1-2.89-3.89,13.6,13.6,0,0,1-1-5.24V103.48a17.9,17.9,0,0,1,9.12,2.45,33.06,33.06,0,0,1,7.78,6,39.06,39.06,0,0,1,6,8,48.37,48.37,0,0,1,4,8.14h1.17l-3.07-26.21Z">
  </path>
</svg>